<svg xmlns="http://www.w3.org/2000/svg" viewBox="0 0 1470 280">
  <path aria-label="sf" d="M1194 209a13 13 0 0 1-9.7-4.6c-2.9-3-5-6.6-6.3-10.5-1.2-3.6-1-7.5.3-11l23.8-55.5c1.1-2.6 1.7-4.7 1.5-6-.2-1.4-1-2-2.3-2-.9 0-2.6.7-5.4 2.4-5 3.1-9.9 6.8-14.3 10.8-2.2 2.2-4 3.2-5.5 3.2-1.4 0-2.2-.7-2.2-2.3 0-1.8.5-3.5 1.5-5.2a107 107 0 0 1 18.9-21.2 76.5 76.5 0 0 1 16.9-11.2 38.9 38.9 0 0 1 16.4-4c2.4 0 4.9 1.2 7.2 3.4 2.4 2.2 4.1 5 5.4 8a10 10 0 0 1 0 8.2l-12 26.5c-4.8 10.3-10.2 22.2-16.1 35.5a11.6 11.6 0 0 0-1.6 6.7c.2 1.9 1.1 2.8 2.8 2.8 1.8 0 4.3-1.8 7.6-5.6 3.3-3.7 7-8.4 11.2-14.2l13-17.5a254 254 0 0 0 18-26.2 169 169 0 0 1 14.5-22.8c2.3-3 4.9-4.6 7.8-4.6 3.3 0 6.1 1 8.7 3 2.5 1.8 4.5 4.1 5.6 6.7a10 10 0 0 1 .6 7.6l-25.6 67.7a9.7 9.7 0 0 0-.6 3.9c0 1.2.5 1.8 1.4 1.8 1.3 0 3.7-1 7.3-3.2a119 119 0 0 0 20-15.9l1-.7c.9 0 1.6.3 2.3 1.2.7.7 1 1.7 1 2.8 0 2.1-1.1 4.8-3.6 8-9.5 10.9-21 19.8-33.8 26.1-4 1.9-7.7 3-11 3.2-2.2.8-4.6 1-7 .2-2.5-.7-4.5-1.9-6.4-3.4a27.5 27.5 0 0 1-4.4-4.6c-.4-1-.6-2-.6-3.1a7 7 0 0 1 1-4l4.7-10.6a389 389 0 0 0 11-26.8c.6-1.5.4-2.4-.4-2.5-1 0-1.8.5-2.6 1.7-5 7-10 13.8-15.3 20.6-5.2 6.8-10.4 13-15.5 18.7a99.2 99.2 0 0 1-15.2 13.3c-5 3.5-9.7 5.2-14 5.2Zm133.9 0c-4.3 0-7.4-1.3-9.5-3.8a13 13 0 0 1-3-8.7 21 21 0 0 1 6.6-15 8.2 8.2 0 0 1 5.9-2.9c.9 0 1.8.5 2.7 1.3 1 1 2 2 2.6 3.2.7 1 1.7 1.7 2.8 2.4 1.3.9 2.7 1.3 4.4 1.3a11 11 0 0 0 5-1.4c1.8-1 3.6-2.6 5.5-4.7 5.8-6.6 11.5-13.3 17.1-20a7 7 0 0 0 1.5-3.3c.2-1 0-2.3-.5-3.8l-9.7-33.8a8.8 8.8 0 0 0-1.4-3.2 2.6 2.6 0 0 0-2.2-1.1c-1.8 0-4.2 1-7 3.4a84 84 0 0 0-9.2 9.6c-.4.5-.8.8-1.3 1.1-.5.4-1 .7-1.7.7s-1.3-.3-1.8-.8a3 3 0 0 1-1-2.3c0-3.3 1-7 3-11a50.2 50.2 0 0 1 19-20.5 28 28 0 0 1 13.6-3.6c4.2 0 7.5 1.7 9.8 4.9 2.3 3.2 4.3 7.4 5.7 12.7l7.5 24c.5 2.1 1.6 2 3.3-.2l15-21.5c3.8-5.8 8.5-11 13.8-15.3a22 22 0 0 1 12.4-4.6c4.4 0 8 1.8 11.1 5.2 3 3.3 4.5 6.4 4.5 9 0 2.9-.8 5.7-2.2 8.4a22.3 22.3 0 0 1-5.3 6.4c-2 1.6-3.8 2.4-5.3 2.4-2.1 0-3.5-.4-4.3-1.1a19 19 0 0 1-2-3 13 13 0 0 0-2.5-3.5c-.8-1-2.2-1.3-4-1.3-1.3 0-3 .5-5.1 1.3-2 1-4.8 3.2-8.2 6.8a74.3 74.3 0 0 0-7.3 8.9c-2.5 3.5-5 7.4-7.5 11.5l-1.8 4.5c-.6 1.4-.5 3.2.3 5.5l7 26.6c1 2.8 1.8 4.6 2.6 5.6 1 .9 1.9 1.5 3.1 1.5 1.4 0 3.4-1.3 6-3.6 2.7-2.3 5.5-6.1 8.5-11.4 1.1-1.4 2.2-2 3.4-2 .7 0 1.2.3 1.7 1 .4.5.6 1.5.6 2.9 0 2.6-1 5.9-2.7 9.8a55 55 0 0 1-7.3 11.8 48.7 48.7 0 0 1-11 9.8 23.4 23.4 0 0 1-12.8 3.9c-4.7 0-8.6-1.9-11.8-5.3-3-3.3-5.1-7.2-6.3-11.4l-2.3-11.7a195 195 0 0 0-2.6-11.6c-.1-.8-.5-1.5-1-2.1-.5-.4-1.2 0-2 1l-7.4 11.2c-2.5 4-5 7.6-7.7 11a51.6 51.6 0 0 1-13.8 14c-5 3.3-9.4 4.9-13.5 4.9Z"/>
  <path aria-label="symfony" d="M835.6 100.6c31.6 0 52.8 23.3 52.8 55.5 0 30.5-21.6 55.7-52.8 55.7-31.3 0-53-25.2-53-55.7 0-32.2 21.2-55.5 53-55.5Zm0 95.4c22.5 0 32.4-20.8 32.4-39.9 0-20.1-12-39.7-32.4-39.7-20.5 0-32.6 19.6-32.6 39.7 0 19 10 39.9 32.6 39.9Zm-55.5-85.5V103h-27.6V93c0-14.3 2.1-25.1 18.6-25.1h1a8 8 0 0 0 6-2.2 8.4 8.4 0 0 0 2.6-6l.4-6.4c-4.2-.8-8.5-1.2-12.8-1.2-28.3 0-34.9 16.8-34.9 42.6v8.4H709v8.3a8.7 8.7 0 0 0 8.6 7.6h15.8v90.3H744c4.5 0 8-3.3 8.6-7.6V119h19.2c4.6 0 8.2-3.7 8.4-8.4Zm-255-7.4a11 11 0 0 0-9.8 6.7L489 191h-.4l-25.8-81.2a11.2 11.2 0 0 0-9.6-6.7h-13.5l35.2 99c1.3 3.6 3.7 9 3.7 11.3 0 2.1-5.7 26.3-22.9 26.3h-1.2c-4.3-.4-7.6 2.8-8.4 7.5l-.5 6.9c3.5.6 7 1.4 13 1.4 25.3 0 32.8-23.6 40-44L536.9 103H525v.1Zm-121.8 21.6c-15.8-8.3-33-14-33.4-30.5 0-17.8 16-22.4 28.2-22.4h.1c5.4 0 9.6.5 13.7 1.5h.2c2.1 0 4.2-.7 5.8-2a8.5 8.5 0 0 0 2.8-5.7l.3-6.4c-7.7-2-15.7-3-23.7-3.1-26.7.2-46.4 13.9-46.5 40 0 22.9 15.2 31.8 31.4 39.7 15.8 7.8 33.3 14.3 33.4 33.1 0 19.6-18.7 27-31.4 27-7.5 0-15.7-1.9-22.5-4.2-4.3-.6-7.8 3.2-8.4 8.3l-.5 5.7c9.4 3.2 19 5.9 28.7 5.9h.1c29.9-.3 53-12.4 53-44 0-24.3-15.1-34.5-31.3-43ZM693 209.3c4.1 0 7.6-3 8.5-7v-61c0-23.2-9.6-40.7-36-40.7-9.5 0-25 5.4-32.3 20.5a31.3 31.3 0 0 0-11.5-15 30.2 30.2 0 0 0-18-5.5c-15.2 0-25.6 5.6-33 18h-.4v-6.7a9 9 0 0 0-2.6-6.2 8.6 8.6 0 0 0-6-2.6h-9.3v106.2h10.3c4.9 0 8.8-4 8.8-9V156c0-19.8 7.8-39.4 27.4-39.4 15.4 0 18.5 16.5 18.5 29.6v63.2h10.5c4.6 0 8.2-3.5 8.6-8V156c0-19.8 7.8-39.4 27.4-39.4 15.4 0 18.4 16.5 18.4 29.6v63.2H693Zm295.8 0c4.8 0 8.5-3.8 8.8-8.4v-54.7c0-28.5-12-45.6-39-45.6-14.4 0-28.3 7.3-34 19.3h-.4V112a9 9 0 0 0-2.6-6.3 8.6 8.6 0 0 0-6.1-2.6h-9.9v106.2h10.6c4.6 0 8.2-3.7 8.6-8.2v-41c0-25.8 9.8-43.7 31.6-43.7 16.7 1 21.9 13 21.9 37.9v55h10.6-.1ZM1091.9 103h-.2c-4 0-8 2.8-9.6 6.7l-26.4 81.2h-.4l-25.8-81.2a11.2 11.2 0 0 0-9.6-6.7h-13.5l35.3 99c1.2 3.6 3.6 9 3.6 11.3 0 2.1-5.7 26.3-22.8 26.3h-1.2c-4.4-.4-7.7 2.8-8.4 7.5l-.5 6.9c3.4.6 6.9 1.4 13 1.4 25.3 0 32.9-23.6 39.9-44l38.3-108.5h-11.8v.1Z"/>
  <path aria-label="ux" d="M142.3 0c36.3 0 71.2 14.8 96.9 41a141.6 141.6 0 0 1 40 99 142 142 0 0 1-40 99 135.4 135.4 0 0 1-96.9 41c-36.3 0-71.1-14.8-96.8-41a141.6 141.6 0 0 1-40.1-99 142 142 0 0 1 40-99c25.8-26.3 60.6-41 97-41Zm59.8 51.8a48.5 48.5 0 0 0-35 19.1 122 122 0 0 0-21.5 40.4c-8.6-7.1-15.2-16.5-29-20.5a34.7 34.7 0 0 0-32 6 30 30 0 0 0-10 14.6c-4 13.8 4.5 26 8.3 30.4l8.4 9.2c1.8 1.8 6 6.5 4 13.3-2.4 7.3-11 12.1-19.9 9.3-4-1.3-9.7-4.3-8.4-8.6.6-1.7 1.8-3 2.5-4.5l1-2.8c1.6-5.5-.6-12.5-6.3-14.3-5.3-1.6-10.7-.3-12.8 6.6-2.4 8 1.4 22.4 21.2 28.5 23.3 7.4 42.9-5.6 45.7-22.4 1.8-10.6-3-18.5-11.4-28.6l-7-8a13.2 13.2 0 0 1-1.3-17.2c3.6-4.9 9-6.8 17.5-4.5 12.6 3.6 18.3 12.4 27.6 19.6A433 433 0 0 0 135 155l-1.3 8.7c-6.8 35.8-12 55.5-25.2 66.8-2.6 1.9-6.3 4.9-12.2 5-3 .2-4-2-4-3 0-2 1.7-3 3-4 1.7-1 4.3-2.6 4.1-7.9a12 12 0 0 0-3.8-8.3 11.5 11.5 0 0 0-8.6-3c-5.5.1-13.7 5.4-13.4 15 .3 9.9 9.3 17.3 22.9 16.8 7.3-.2 23.5-3.2 39.5-22.7 18.7-22.3 23.9-47.9 27.8-66.5l4.4-24.8 7.8.6c23.2.5 34.9-11.8 35-20.7.2-5.5-3.5-10.8-8.5-10.7-3.6.1-8 2.6-9.1 7.7-1.1 5 7.3 9.5.7 13.9-4.7 3-13 5.2-25 3.4l2.3-12.1c4.3-23 9.7-51.4 30.3-52 1.5-.2 7 0 7 3.7 0 1.2-.2 1.5-1.6 4.3a10 10 0 0 0-1.9 6.3c.2 5.9 4.6 9.7 11 9.5 8.4-.3 10.8-8.7 10.7-13-.3-10.3-10.8-16.7-24.7-16.2Z"/>
</svg>
