<svg xmlns="http://www.w3.org/2000/svg" fill="none" viewBox="0 0 1470 280">
  <path fill="#000" d="M142.3 0c36.3 0 71.2 14.8 96.9 41a141.6 141.6 0 0 1 40 99 142 142 0 0 1-40 99 135.4 135.4 0 0 1-96.9 41c-36.3 0-71.1-14.8-96.8-41a141.6 141.6 0 0 1-40.1-99 142 142 0 0 1 40-99c25.8-26.3 60.6-41 97-41Zm59.8 51.8a48.5 48.5 0 0 0-35 19.1 122 122 0 0 0-21.5 40.4c-8.6-7.1-15.2-16.5-29-20.5a34.7 34.7 0 0 0-32 6 30 30 0 0 0-10 14.6c-4 13.8 4.5 26 8.3 30.4l8.4 9.2c1.8 1.8 6 6.5 4 13.3-2.4 7.3-11 12.1-19.9 9.3-4-1.3-9.7-4.3-8.4-8.6.6-1.7 1.8-3 2.5-4.5l1-2.8c1.6-5.5-.6-12.5-6.3-14.3-5.3-1.6-10.7-.3-12.8 6.6-2.4 8 1.4 22.4 21.2 28.5 23.3 7.4 42.9-5.6 45.7-22.4 1.8-10.6-3-18.5-11.4-28.6l-7-8a13.2 13.2 0 0 1-1.3-17.2c3.6-4.9 9-6.8 17.5-4.5 12.6 3.6 18.3 12.4 27.6 19.6A433 433 0 0 0 135 155l-1.3 8.7c-6.8 35.8-12 55.5-25.2 66.8-2.6 1.9-6.3 4.9-12.2 5-3 .2-4-2-4-3 0-2 1.7-3 3-4 1.7-1 4.3-2.6 4.1-7.9a12 12 0 0 0-3.8-8.3 11.5 11.5 0 0 0-8.6-3c-5.5.1-13.7 5.4-13.4 15 .3 9.9 9.3 17.3 22.9 16.8 7.3-.2 23.5-3.2 39.5-22.7 18.7-22.3 23.9-47.9 27.8-66.5l4.4-24.8 7.8.6c23.2.5 34.9-11.8 35-20.7.2-5.5-3.5-10.8-8.5-10.7-3.6.1-8 2.6-9.1 7.7-1.1 5 7.3 9.5.7 13.9-4.7 3-13 5.2-25 3.4l2.3-12.1c4.3-23 9.7-51.4 30.3-52 1.5-.2 7 0 7 3.7 0 1.2-.2 1.5-1.6 4.3a10 10 0 0 0-1.9 6.3c.2 5.9 4.6 9.7 11 9.5 8.4-.3 10.8-8.7 10.7-13-.3-10.3-10.8-16.7-24.7-16.2Z"/>
</svg>
