<svg xmlns="http://www.w3.org/2000/svg" fill="none" viewBox="0 0 1470 280">
  <path fill="#000" d="M1194 209a13 13 0 0 1-9.7-4.6c-2.9-3-5-6.6-6.3-10.5-1.2-3.6-1-7.5.3-11l23.8-55.5c1.1-2.6 1.7-4.7 1.5-6-.2-1.4-1-2-2.3-2-.9 0-2.6.7-5.4 2.4-5 3.1-9.9 6.8-14.3 10.8-2.2 2.2-4 3.2-5.5 3.2-1.4 0-2.2-.7-2.2-2.3 0-1.8.5-3.5 1.5-5.2a107 107 0 0 1 18.9-21.2 76.5 76.5 0 0 1 16.9-11.2 38.9 38.9 0 0 1 16.4-4c2.4 0 4.9 1.2 7.2 3.4 2.4 2.2 4.1 5 5.4 8a10 10 0 0 1 0 8.2l-12 26.5c-4.8 10.3-10.2 22.2-16.1 35.5a11.6 11.6 0 0 0-1.6 6.7c.2 1.9 1.1 2.8 2.8 2.8 1.8 0 4.3-1.8 7.6-5.6 3.3-3.7 7-8.4 11.2-14.2l13-17.5a254 254 0 0 0 18-26.2 169 169 0 0 1 14.5-22.8c2.3-3 4.9-4.6 7.8-4.6 3.3 0 6.1 1 8.7 3 2.5 1.8 4.5 4.1 5.6 6.7a10 10 0 0 1 .6 7.6l-25.6 67.7a9.7 9.7 0 0 0-.6 3.9c0 1.2.5 1.8 1.4 1.8 1.3 0 3.7-1 7.3-3.2a119 119 0 0 0 20-15.9l1-.7c.9 0 1.6.3 2.3 1.2.7.7 1 1.7 1 2.8 0 2.1-1.1 4.8-3.6 8-9.5 10.9-21 19.8-33.8 26.1-4 1.9-7.7 3-11 3.2-2.2.8-4.6 1-7 .2-2.5-.7-4.5-1.9-6.4-3.4a27.5 27.5 0 0 1-4.4-4.6c-.4-1-.6-2-.6-3.1a7 7 0 0 1 1-4l4.7-10.6a389 389 0 0 0 11-26.8c.6-1.5.4-2.4-.4-2.5-1 0-1.8.5-2.6 1.7-5 7-10 13.8-15.3 20.6-5.2 6.8-10.4 13-15.5 18.7a99.2 99.2 0 0 1-15.2 13.3c-5 3.5-9.7 5.2-14 5.2Zm133.9 0c-4.3 0-7.4-1.3-9.5-3.8a13 13 0 0 1-3-8.7 21 21 0 0 1 6.6-15 8.2 8.2 0 0 1 5.9-2.9c.9 0 1.8.5 2.7 1.3 1 1 2 2 2.6 3.2.7 1 1.7 1.7 2.8 2.4 1.3.9 2.7 1.3 4.4 1.3a11 11 0 0 0 5-1.4c1.8-1 3.6-2.6 5.5-4.7 5.8-6.6 11.5-13.3 17.1-20a7 7 0 0 0 1.5-3.3c.2-1 0-2.3-.5-3.8l-9.7-33.8a8.8 8.8 0 0 0-1.4-3.2 2.6 2.6 0 0 0-2.2-1.1c-1.8 0-4.2 1-7 3.4a84 84 0 0 0-9.2 9.6c-.4.5-.8.8-1.3 1.1-.5.4-1 .7-1.7.7s-1.3-.3-1.8-.8a3 3 0 0 1-1-2.3c0-3.3 1-7 3-11a50.2 50.2 0 0 1 19-20.5 28 28 0 0 1 13.6-3.6c4.2 0 7.5 1.7 9.8 4.9 2.3 3.2 4.3 7.4 5.7 12.7l7.5 24c.5 2.1 1.6 2 3.3-.2l15-21.5c3.8-5.8 8.5-11 13.8-15.3a22 22 0 0 1 12.4-4.6c4.4 0 8 1.8 11.1 5.2 3 3.3 4.5 6.4 4.5 9 0 2.9-.8 5.7-2.2 8.4a22.3 22.3 0 0 1-5.3 6.4c-2 1.6-3.8 2.4-5.3 2.4-2.1 0-3.5-.4-4.3-1.1a19 19 0 0 1-2-3 13 13 0 0 0-2.5-3.5c-.8-1-2.2-1.3-4-1.3-1.3 0-3 .5-5.1 1.3-2 1-4.8 3.2-8.2 6.8a74.3 74.3 0 0 0-7.3 8.9c-2.5 3.5-5 7.4-7.5 11.5l-1.8 4.5c-.6 1.4-.5 3.2.3 5.5l7 26.6c1 2.8 1.8 4.6 2.6 5.6 1 .9 1.9 1.5 3.1 1.5 1.4 0 3.4-1.3 6-3.6 2.7-2.3 5.5-6.1 8.5-11.4 1.1-1.4 2.2-2 3.4-2 .7 0 1.2.3 1.7 1 .4.5.6 1.5.6 2.9 0 2.6-1 5.9-2.7 9.8a55 55 0 0 1-7.3 11.8 48.7 48.7 0 0 1-11 9.8 23.4 23.4 0 0 1-12.8 3.9c-4.7 0-8.6-1.9-11.8-5.3-3-3.3-5.1-7.2-6.3-11.4l-2.3-11.7a195 195 0 0 0-2.6-11.6c-.1-.8-.5-1.5-1-2.1-.5-.4-1.2 0-2 1l-7.4 11.2c-2.5 4-5 7.6-7.7 11a51.6 51.6 0 0 1-13.8 14c-5 3.3-9.4 4.9-13.5 4.9Z"/>
</svg>
