<svg xmlns="http://www.w3.org/2000/svg" fill="none" viewBox="0 0 1470 280">
  <path fill="#000" d="M835.6 100.6c31.6 0 52.8 23.3 52.8 55.5 0 30.5-21.6 55.7-52.8 55.7-31.3 0-53-25.2-53-55.7 0-32.2 21.2-55.5 53-55.5Zm0 95.4c22.5 0 32.4-20.8 32.4-39.9 0-20.1-12-39.7-32.4-39.7-20.5 0-32.6 19.6-32.6 39.7 0 19 10 39.9 32.6 39.9Zm-55.5-85.5V103h-27.6V93c0-14.3 2.1-25.1 18.6-25.1h1a8 8 0 0 0 6-2.2 8.4 8.4 0 0 0 2.6-6l.4-6.4c-4.2-.8-8.5-1.2-12.8-1.2-28.3 0-34.9 16.8-34.9 42.6v8.4H709v8.3a8.7 8.7 0 0 0 8.6 7.6h15.8v90.3H744c4.5 0 8-3.3 8.6-7.6V119h19.2c4.6 0 8.2-3.7 8.4-8.4Zm-255-7.4a11 11 0 0 0-9.8 6.7L489 191h-.4l-25.8-81.2a11.2 11.2 0 0 0-9.6-6.7h-13.5l35.2 99c1.3 3.6 3.7 9 3.7 11.3 0 2.1-5.7 26.3-22.9 26.3h-1.2c-4.3-.4-7.6 2.8-8.4 7.5l-.5 6.9c3.5.6 7 1.4 13 1.4 25.3 0 32.8-23.6 40-44L536.9 103H525v.1Zm-121.8 21.6c-15.8-8.3-33-14-33.4-30.5 0-17.8 16-22.4 28.2-22.4h.1c5.4 0 9.6.5 13.7 1.5h.2c2.1 0 4.2-.7 5.8-2a8.5 8.5 0 0 0 2.8-5.7l.3-6.4c-7.7-2-15.7-3-23.7-3.1-26.7.2-46.4 13.9-46.5 40 0 22.9 15.2 31.8 31.4 39.7 15.8 7.8 33.3 14.3 33.4 33.1 0 19.6-18.7 27-31.4 27-7.5 0-15.7-1.9-22.5-4.2-4.3-.6-7.8 3.2-8.4 8.3l-.5 5.7c9.4 3.2 19 5.9 28.7 5.9h.1c29.9-.3 53-12.4 53-44 0-24.3-15.1-34.5-31.3-43ZM693 209.3c4.1 0 7.6-3 8.5-7v-61c0-23.2-9.6-40.7-36-40.7-9.5 0-25 5.4-32.3 20.5a31.3 31.3 0 0 0-11.5-15 30.2 30.2 0 0 0-18-5.5c-15.2 0-25.6 5.6-33 18h-.4v-6.7a9 9 0 0 0-2.6-6.2 8.6 8.6 0 0 0-6-2.6h-9.3v106.2h10.3c4.9 0 8.8-4 8.8-9V156c0-19.8 7.8-39.4 27.4-39.4 15.4 0 18.5 16.5 18.5 29.6v63.2h10.5c4.6 0 8.2-3.5 8.6-8V156c0-19.8 7.8-39.4 27.4-39.4 15.4 0 18.4 16.5 18.4 29.6v63.2H693Zm295.8 0c4.8 0 8.5-3.8 8.8-8.4v-54.7c0-28.5-12-45.6-39-45.6-14.4 0-28.3 7.3-34 19.3h-.4V112a9 9 0 0 0-2.6-6.3 8.6 8.6 0 0 0-6.1-2.6h-9.9v106.2h10.6c4.6 0 8.2-3.7 8.6-8.2v-41c0-25.8 9.8-43.7 31.6-43.7 16.7 1 21.9 13 21.9 37.9v55h10.6-.1ZM1091.9 103h-.2c-4 0-8 2.8-9.6 6.7l-26.4 81.2h-.4l-25.8-81.2a11.2 11.2 0 0 0-9.6-6.7h-13.5l35.3 99c1.2 3.6 3.6 9 3.6 11.3 0 2.1-5.7 26.3-22.8 26.3h-1.2c-4.4-.4-7.7 2.8-8.4 7.5l-.5 6.9c3.4.6 6.9 1.4 13 1.4 25.3 0 32.9-23.6 39.9-44l38.3-108.5h-11.8v.1Z"/>
</svg>
